<svg xmlns="http://www.w3.org/2000/svg" version="1.1" xmlns:xlink="http://www.w3.org/1999/xlink" xmlns:svgjs="http://svgjs.dev/svgjs" width="1000" height="1000" viewBox="0 0 1000 1000"><rect width="1000" height="1000" fill="#ffffff"></rect><g transform="matrix(0.7,0,0,0.7,149.57575757575756,282.1265587044535)"><svg viewBox="0 0 396 247" data-background-color="#ffffff" preserveAspectRatio="xMidYMid meet" height="623" width="1000" xmlns="http://www.w3.org/2000/svg" xmlns:xlink="http://www.w3.org/1999/xlink"><g id="tight-bounds" transform="matrix(1,0,0,1,0.2400000000000091,-0.09999999999999432)"><svg viewBox="0 0 395.52 247.2" height="247.2" width="395.52"><g><svg></svg></g><g><svg viewBox="0 0 395.52 247.2" height="247.2" width="395.52"><g transform="matrix(1,0,0,1,39.55199999999999,92.30382324194554)"><svg viewBox="0 0 316.416 62.5923535161089" height="62.5923535161089" width="316.416"><g><svg viewBox="0 0 316.416 62.5923535161089" height="62.5923535161089" width="316.416"><g><svg viewBox="0 0 316.416 62.5923535161089" height="62.5923535161089" width="316.416"><g id="textblocktransform"><svg viewBox="0 0 316.416 62.5923535161089" height="62.5923535161089" width="316.416" id="textblock"><g><rect width="60.435456" height="3.103439378301723" y="51.01326963346639" fill="#ba3b0a" data-fill-palette-color="tertiary"></rect><rect width="60.435456" height="3.103439378301723" y="51.01326963346639" x="255.980544" fill="#ba3b0a" data-fill-palette-color="tertiary"></rect></g><g><svg viewBox="0 0 316.416 34.413438274932616" height="34.413438274932616" width="316.416"><g transform="matrix(1,0,0,1,0,0)"><svg width="316.416" viewBox="2.5399999618530273 -37.84000015258789 362.2799987792969 39.400001525878906" height="34.413438274932616" data-palette-color="#ba3b0a"><path d="M2.54-3.32L2.54-3.32 2.54-35.84Q2.54-36.01 2.7-36.13 2.86-36.25 3.2-36.3 3.54-36.35 3.8-36.38 4.05-36.4 4.53-36.41 5-36.43 5.18-36.43L5.18-36.43 25-36.43Q27.44-36.43 29.61-35.66 31.79-34.89 33.47-33.42 35.16-31.96 36.13-29.64 37.11-27.32 37.11-24.41L37.11-24.41Q37.11-22.27 36.61-20.48 36.11-18.7 35.29-17.44 34.47-16.19 33.29-15.19 32.1-14.18 30.87-13.57 29.64-12.96 28.15-12.54 26.66-12.11 25.4-11.91 24.15-11.72 22.75-11.62L22.75-11.62 18.07-11.62Q17.87-7.79 17.87-3.03L17.87-3.03 17.87-0.29Q17.8 0.59 17.04 0.59L17.04 0.59 3.17 0.59Q2.54-1.1 2.54-3.32ZM16.31-20.41L16.31-20.41 17.09-19.34Q18.09-19.34 19.01-19.48 19.92-19.63 20.8-20 21.68-20.36 22.31-20.94 22.95-21.51 23.34-22.4 23.73-23.29 23.73-24.41L23.73-24.41Q23.73-25.27 23.5-25.94 23.27-26.61 22.94-27.04 22.61-27.47 22.03-27.78 21.46-28.1 20.96-28.26 20.46-28.42 19.69-28.5 18.92-28.59 18.42-28.6 17.92-28.61 17.14-28.61L17.14-28.61Q16.31-28.22 16.31-20.41ZM39.5-12.16L39.5-12.16Q39.6-24.17 39.6-30.08L39.6-30.08 39.6-30.37Q39.6-30.54 39.55-31.58 39.5-32.62 39.5-33.35L39.5-33.35Q39.5-36.28 39.99-36.67L39.99-36.67Q40.11-36.67 40.35-36.65 40.6-36.62 40.72-36.62L40.72-36.62Q44.82-36.82 50.24-36.82L50.24-36.82 53.56-36.82Q53.76-36.79 54.09-36.66 54.42-36.52 54.54-36.52L54.54-36.52Q54.56-35.33 54.65-32.4 54.73-29.47 54.77-27.32 54.81-25.17 54.78-23.1L54.78-23.1 54.78-13.57Q54.78-12.67 54.83-12.11 54.88-11.55 55.06-10.79 55.25-10.03 55.72-9.66 56.2-9.28 56.93-9.28L56.93-9.28Q57.96-9.28 58.59-10.14 59.23-11.01 59.23-12.16L59.23-12.16 59.23-21.09Q59.2-22.73 59.26-26.25 59.32-29.76 59.27-31.74L59.27-31.74 59.27-33.5Q59.27-33.76 59.23-34.31 59.18-34.86 59.18-35.16L59.18-35.16 59.18-36.33Q59.25-36.89 59.81-37.01L59.81-37.01Q64.5-37.01 73.87-36.91L73.87-36.91 73.87-36.52 74.95-36.52Q74.75-31.32 74.75-24.41L74.75-24.41 74.75-18.95Q74.75-17.85 74.7-15.58 74.66-13.31 74.66-12.21L74.66-12.21Q74.66-9.03 73.65-6.59 72.65-4.15 71.02-2.66 69.38-1.17 67.06-0.22 64.74 0.73 62.38 1.1 60.01 1.46 57.27 1.46L57.27 1.46Q54.64 1.46 52.33 1.14 50.02 0.81 47.65-0.13 45.29-1.07 43.58-2.54 41.87-4 40.74-6.47 39.62-8.94 39.5-12.16ZM114.55 0.1L114.55 0.1Q114.01 0.63 112.29 0.73 110.57 0.83 108.05 0.68 105.54 0.54 105.37 0.54L105.37 0.54Q103.71 0.54 102.97 0.49L102.97 0.49 100.53 0.49Q100 0.32 99.63-1.11 99.26-2.54 98.91-5.21 98.55-7.89 98.53-8.06L98.53-8.06Q98.43-10.47 97.75-11.24 97.07-12.01 95.26-12.01L95.26-12.01 94.18-12.01 94.18-0.1Q94.14 0.2 93.67 0.39 93.21 0.59 92.34 0.65 91.47 0.71 90.8 0.72 90.13 0.73 89.03 0.71 87.93 0.68 87.69 0.68L87.69 0.68 84.17 0.68Q81.2 0.68 79.68 0.73L79.68 0.73Q79.34 0.59 79 0.39L79 0.39 79-36.04Q79-36.72 80.95-36.72L80.95-36.72 102.24-36.72Q107.78-36.57 110.68-34.08 113.57-31.59 113.57-27.05L113.57-27.05Q113.57-21.14 107.61-18.41L107.61-18.41Q108.71-18.07 109.59-17.46 110.47-16.85 111.05-16.15 111.64-15.45 112.08-14.48 112.52-13.5 112.76-12.65 113.01-11.79 113.19-10.62 113.37-9.45 113.45-8.59 113.52-7.74 113.63-6.56 113.74-5.37 113.81-4.69L113.81-4.69 113.81-2.54Q113.89-2.15 114.27-1.44 114.64-0.73 114.74-0.39L114.74-0.39Q114.74 0.1 114.55 0.1ZM94.04-26.37L94.04-26.37Q94.04-24.9 94.06-24.19 94.09-23.49 94.33-22.34 94.58-21.19 95.06-20.7L95.06-20.7Q96.09-20.7 97-20.92 97.92-21.14 98.77-21.63 99.63-22.12 100.13-23.08 100.63-24.05 100.63-25.39L100.63-25.39Q100.63-26.15 100.36-26.72 100.09-27.29 99.58-27.64 99.07-27.98 98.57-28.19 98.07-28.39 97.35-28.48 96.63-28.56 96.21-28.59 95.8-28.61 95.21-28.61L95.21-28.61 94.62-28.61Q94.26-28.44 94.15-27.93 94.04-27.42 94.04-26.37ZM116.98-0.88L116.98-0.88 116.98-1.81Q116.98-5.98 117.08-14.14 117.18-22.29 117.18-26.46L117.18-26.46 117.18-36.57 145.6-36.57 145.6-28.56Q145.6-28.49 145.6-28.2 145.6-27.91 145.6-27.81 145.6-27.71 145.57-27.45 145.55-27.2 145.49-27.1 145.43-27 145.32-26.82 145.21-26.64 145.06-26.56 144.91-26.49 144.67-26.43 144.43-26.37 144.13-26.37L144.13-26.37 143.45-26.37Q137.13-26.37 131.93-26.56L131.93-26.56Q131.88-26.17 131.77-25.35 131.66-24.54 131.6-23.91 131.54-23.29 131.54-22.71L131.54-22.71 143.16-22.71Q143.89-22.71 144.13-22.51 144.38-22.31 144.38-21.88L144.38-21.88Q144.38-21.75 144.35-21.48 144.33-21.22 144.33-21.09L144.33-21.09Q144.33-19.92 144.4-17.63 144.47-15.33 144.47-14.16L144.47-14.16Q144.4-13.67 144.08-13.67L144.08-13.67Q143.94-13.67 143.84-13.77L143.84-13.77Q136.13-13.38 132.41-13.38L132.41-13.38 131.78-13.38 131.78-9.86Q133.95-9.86 138.07-10.06 142.18-10.25 144.23-10.25L144.23-10.25Q145.84-10.25 146.09-9.57L146.09-9.57 146.09-7.71Q146.09-6.54 146.14-4.25 146.18-1.95 146.18-0.78L146.18-0.78Q146.18 0.44 145.21 0.44L145.21 0.44Q143.94 0.44 141.3 0.42 138.66 0.39 137.3 0.39L137.3 0.39Q133.78 0.39 127.24 0.57 120.7 0.76 117.77 0.78L117.77 0.78 117.08 0Q116.98-0.68 116.98-0.88ZM198.96-13.09L198.96-13.09Q198.55-9.42 197.03-6.6 195.52-3.78 193.15-2.01 190.78-0.24 187.77 0.66 184.75 1.56 181.19 1.56L181.19 1.56Q177.87 1.56 175.13 0.84 172.4 0.12 170.52-1.07 168.64-2.27 167.2-3.99 165.76-5.71 164.9-7.53 164.05-9.35 163.53-11.51 163-13.67 162.82-15.54 162.63-17.41 162.63-19.43L162.63-19.43 162.63-21.58Q162.88-25.15 164.29-27.99 165.71-30.83 167.74-32.58 169.76-34.33 172.38-35.49 174.99-36.65 177.45-37.1 179.92-37.55 182.36-37.55L182.36-37.55Q186.29-37.55 189.31-36.61 192.32-35.67 194.23-33.96 196.13-32.25 197.2-30.04 198.28-27.83 198.57-25.1L198.57-25.1 198.57-22.75Q198.57-21.97 193.2-21.97L193.2-21.97Q191.93-21.97 189.67-22.02 187.41-22.07 186.71-22.07L186.71-22.07Q186.58-22.07 186.34-22.05 186.1-22.02 185.97-22.02L185.97-22.02Q185.34-22.02 185.01-22.55 184.68-23.07 184.57-23.83 184.46-24.58 184.3-25.34 184.14-26.1 183.64-26.62 183.14-27.15 182.26-27.15 181.38-27.15 180.72-26.86 180.07-26.56 179.68-25.94 179.28-25.32 179.03-24.68 178.77-24.05 178.66-23.03 178.55-22.02 178.52-21.33 178.48-20.63 178.45-19.47 178.43-18.31 178.41-17.77L178.41-17.77Q178.41-17.48 178.36-16.7 178.31-15.92 178.31-15.43L178.31-15.43Q178.31-9.35 181.53-9.18L181.53-9.18Q182.41-9.18 182.97-9.81 183.53-10.45 183.74-11.23 183.95-12.01 184.22-12.88 184.48-13.75 184.8-14.06L184.8-14.06 198.08-14.06Q198.89-13.99 198.96-13.09ZM200.23-18.36L200.23-18.36 200.23-21.04Q200.47-24.46 201.72-27.28 202.96-30.1 204.88-32.03 206.8-33.96 209.31-35.29 211.83-36.62 214.57-37.23 217.32-37.84 220.25-37.84L220.25-37.84Q221.86-37.84 223.61-37.57 225.35-37.3 227.3-36.72 229.26-36.13 231.05-35 232.85-33.86 234.02-32.32L234.02-32.32Q236.44-29.37 237.52-26.14 238.61-22.9 238.61-18.95L238.61-18.95Q238.68-10.69 234.99-5.66L234.99-5.66 233.92-4.2Q232.5-2.25 229.87-0.94 227.23 0.37 224.59 0.87 221.96 1.37 219.27 1.37L219.27 1.37Q216.12 1.37 213.46 0.73 210.8 0.1 208.87-0.98 206.94-2.05 205.43-3.59 203.92-5.13 202.95-6.84 201.99-8.54 201.36-10.55 200.74-12.55 200.49-14.45 200.23-16.36 200.23-18.36ZM219.66-28.03L219.66-28.03Q218.66-28.03 217.87-27.56 217.07-27.1 216.57-26.44 216.07-25.78 215.71-24.67 215.34-23.56 215.17-22.67 215-21.78 214.9-20.42 214.8-19.07 214.79-18.32 214.78-17.58 214.78-16.41L214.78-16.41Q214.78-15.28 214.87-14.27 214.95-13.26 215.23-12.12 215.51-10.99 215.96-10.14 216.42-9.3 217.21-8.73 218-8.15 219.03-8.11L219.03-8.11Q220.1-8.11 220.93-8.46 221.76-8.81 222.32-9.36 222.89-9.91 223.28-10.84 223.67-11.77 223.87-12.62 224.08-13.48 224.19-14.75 224.3-16.02 224.33-16.93 224.35-17.85 224.35-19.24L224.35-19.24Q224.35-20.26 224.29-21.14 224.23-22.02 224.08-23.1 223.94-24.17 223.59-24.99 223.25-25.81 222.76-26.53 222.28-27.25 221.48-27.64 220.69-28.03 219.66-28.03ZM242.22-3.42L242.22-3.42 242.22-36.04Q242.22-36.87 246.03-36.87L246.03-36.87Q246.44-36.87 247.21-36.84 247.98-36.82 248.27-36.82L248.27-36.82Q250.2-36.82 254.02-36.89 257.84-36.96 259.8-36.96L259.8-36.96Q261.14-36.96 263.79-36.91 266.44-36.87 267.9-36.87L267.9-36.87Q268.1-36.87 268.49-36.89 268.88-36.91 269.07-36.91L269.07-36.91Q269.95-36.91 270.3-36.58 270.64-36.25 270.64-35.3L270.64-35.3 270.64-26.76Q269.22-26.64 267.68-26.6 266.14-26.56 263.78-26.54 261.41-26.51 260.82-26.51L260.82-26.51 257.45-26.51Q257.45-26.05 257.43-25.17 257.4-24.29 257.4-23.83L257.4-23.83 257.4-23.49Q257.45-23.39 257.45-23.14L257.45-23.14Q263-23.54 266.83-23.54L266.83-23.54Q267.98-23.54 268.87-23.36 269.76-23.19 269.76-22.85L269.76-22.85 269.76-14.7Q269.76-13.62 269.34-13.26 268.93-12.89 268.05-12.89L268.05-12.89Q267.85-12.89 267.34-12.94 266.83-12.99 266.54-12.99L266.54-12.99Q261.58-12.67 257.5-12.6L257.5-12.6Q257.5-11.11 257.58-8.11 257.65-5.1 257.65-3.61L257.65-3.61 257.65-0.59Q257.65 0.12 257.5 0.35 257.36 0.59 256.77 0.68L256.77 0.68Q254.43 0.68 249.84 0.73 245.25 0.78 242.9 0.78L242.9 0.78Q242.71 0.49 242.57 0.15 242.44-0.2 242.37-0.46 242.29-0.73 242.26-1.21 242.22-1.68 242.21-1.89 242.19-2.1 242.21-2.69 242.22-3.27 242.22-3.42ZM273.08-3.42L273.08-3.42 273.08-36.04Q273.08-36.87 276.88-36.87L276.88-36.87Q277.3-36.87 278.07-36.84 278.84-36.82 279.13-36.82L279.13-36.82Q281.06-36.82 284.88-36.89 288.7-36.96 290.65-36.96L290.65-36.96Q292-36.96 294.65-36.91 297.29-36.87 298.76-36.87L298.76-36.87Q298.95-36.87 299.35-36.89 299.74-36.91 299.93-36.91L299.93-36.91Q300.81-36.91 301.15-36.58 301.49-36.25 301.49-35.3L301.49-35.3 301.49-26.76Q300.08-26.64 298.54-26.6 297-26.56 294.63-26.54 292.27-26.51 291.68-26.51L291.68-26.51 288.31-26.51Q288.31-26.05 288.29-25.17 288.26-24.29 288.26-23.83L288.26-23.83 288.26-23.49Q288.31-23.39 288.31-23.14L288.31-23.14Q293.85-23.54 297.69-23.54L297.69-23.54Q298.83-23.54 299.72-23.36 300.61-23.19 300.61-22.85L300.61-22.85 300.61-14.7Q300.61-13.62 300.2-13.26 299.78-12.89 298.91-12.89L298.91-12.89Q298.71-12.89 298.2-12.94 297.69-12.99 297.39-12.99L297.39-12.99Q292.44-12.67 288.36-12.6L288.36-12.6Q288.36-11.11 288.43-8.11 288.51-5.1 288.51-3.61L288.51-3.61 288.51-0.59Q288.51 0.12 288.36 0.35 288.21 0.59 287.63 0.68L287.63 0.68Q285.28 0.68 280.69 0.73 276.1 0.78 273.76 0.78L273.76 0.78Q273.56 0.49 273.43 0.15 273.3-0.2 273.22-0.46 273.15-0.73 273.11-1.21 273.08-1.68 273.06-1.89 273.05-2.1 273.06-2.69 273.08-3.27 273.08-3.42ZM303.74-0.88L303.74-0.88 303.74-1.81Q303.74-5.98 303.83-14.14 303.93-22.29 303.93-26.46L303.93-26.46 303.93-36.57 332.35-36.57 332.35-28.56Q332.35-28.49 332.35-28.2 332.35-27.91 332.35-27.81 332.35-27.71 332.33-27.45 332.3-27.2 332.24-27.1 332.18-27 332.07-26.82 331.96-26.64 331.81-26.56 331.67-26.49 331.42-26.43 331.18-26.37 330.89-26.37L330.89-26.37 330.2-26.37Q323.88-26.37 318.68-26.56L318.68-26.56Q318.63-26.17 318.52-25.35 318.41-24.54 318.35-23.91 318.29-23.29 318.29-22.71L318.29-22.71 329.91-22.71Q330.64-22.71 330.89-22.51 331.13-22.31 331.13-21.88L331.13-21.88Q331.13-21.75 331.11-21.48 331.08-21.22 331.08-21.09L331.08-21.09Q331.08-19.92 331.15-17.63 331.23-15.33 331.23-14.16L331.23-14.16Q331.15-13.67 330.84-13.67L330.84-13.67Q330.69-13.67 330.59-13.77L330.59-13.77Q322.88-13.38 319.17-13.38L319.17-13.38 318.53-13.38 318.53-9.86Q320.71-9.86 324.82-10.06 328.93-10.25 330.98-10.25L330.98-10.25Q332.59-10.25 332.84-9.57L332.84-9.57 332.84-7.71Q332.84-6.54 332.89-4.25 332.94-1.95 332.94-0.78L332.94-0.78Q332.94 0.44 331.96 0.44L331.96 0.44Q330.69 0.44 328.05 0.42 325.42 0.39 324.05 0.39L324.05 0.39Q320.53 0.39 313.99 0.57 307.45 0.76 304.52 0.78L304.52 0.78 303.83 0Q303.74-0.68 303.74-0.88ZM335.62-0.88L335.62-0.88 335.62-1.81Q335.62-5.98 335.72-14.14 335.81-22.29 335.81-26.46L335.81-26.46 335.81-36.57 364.23-36.57 364.23-28.56Q364.23-28.49 364.23-28.2 364.23-27.91 364.23-27.81 364.23-27.71 364.21-27.45 364.18-27.2 364.12-27.1 364.06-27 363.95-26.82 363.84-26.64 363.7-26.56 363.55-26.49 363.31-26.43 363.06-26.37 362.77-26.37L362.77-26.37 362.08-26.37Q355.76-26.37 350.56-26.56L350.56-26.56Q350.51-26.17 350.4-25.35 350.29-24.54 350.23-23.91 350.17-23.29 350.17-22.71L350.17-22.71 361.79-22.71Q362.52-22.71 362.77-22.51 363.01-22.31 363.01-21.88L363.01-21.88Q363.01-21.75 362.99-21.48 362.96-21.22 362.96-21.09L362.96-21.09Q362.96-19.92 363.04-17.63 363.11-15.33 363.11-14.16L363.11-14.16Q363.04-13.67 362.72-13.67L362.72-13.67Q362.57-13.67 362.48-13.77L362.48-13.77Q354.76-13.38 351.05-13.38L351.05-13.38 350.41-13.38 350.41-9.86Q352.59-9.86 356.7-10.06 360.81-10.25 362.87-10.25L362.87-10.25Q364.48-10.25 364.72-9.57L364.72-9.57 364.72-7.71Q364.72-6.54 364.77-4.25 364.82-1.95 364.82-0.78L364.82-0.78Q364.82 0.44 363.84 0.44L363.84 0.44Q362.57 0.44 359.94 0.42 357.3 0.39 355.93 0.39L355.93 0.39Q352.42 0.39 345.87 0.57 339.33 0.76 336.4 0.78L336.4 0.78 335.72 0Q335.62-0.68 335.62-0.88Z" opacity="1" transform="matrix(1,0,0,1,0,0)" fill="#ba3b0a" class="undefined-text-0" data-fill-palette-color="primary" id="text-0"></path></svg></g></svg></g><g transform="matrix(1,0,0,1,60.435456,42.53762512912561)"><svg viewBox="0 0 195.545088 20.05472838698329" height="20.05472838698329" width="195.545088"><g transform="matrix(1,0,0,1,8,0)"><svg width="179.545088" viewBox="2.25 -36.849998474121094 341.07000732421875 38.099998474121094" height="20.05472838698329" data-palette-color="#ba3b0a"><path d="M11.95-3.1L21.25-3.5 22.85 0.3 10.8 1.1 3.05-3.95 2.25-26.45 8.1-34.9 17.8-36.85 24-32.65 17.8-24.45 16.3-25.6 19.35-31.4 16.65-33.8 10.05-32.25 7.35-25.25 7.35-5.85 11.95-3.1ZM41.6-13.1L37.35-12.95 31.75-9.2 31.6-3.6 33.6-2.55Q34.6-2.6 35.45-2.65L35.45-2.65Q36.15-2.7 36.72-2.78 37.3-2.85 37.3-2.95L37.3-2.95Q37.3-2.95 37.5-3.25 37.7-3.55 38.02-4.03 38.35-4.5 38.75-5.08 39.15-5.65 39.6-6.25L39.6-6.25Q40.6-7.65 41.95-9.45L41.95-9.45 41.6-13.1ZM28.9-22.8L34.15-26.45 45.45-23.8 45.65-3.25 49.9-2.95 49.95-0.65 43.75-0.05 41.65-4.45 39.05-0.35 30.6 1.25 27.5-2.5 27.7-10.1 36.25-15.65 41.55-16.35 41.95-21.8 33.6-22.9 31.15-18.65 28.4-21.55 28.9-22.8ZM62.45-32.9L60-29.65 59.95-24.35 66.8-25.3 67.1-22.65 60-21.9 60.8-2.6 63.7-2.55 64.5-0.15 54.65-0.3 54.4-1.95 56.8-2.3 56.35-19.1 56.4-21.05 52.95-21.5 53.1-23.3 56.1-24.25 56.15-30.7 61.1-36.05 69.15-34.75 68.3-32 62.45-32.9ZM80.64-32.9L78.19-29.65 78.14-24.35 84.99-25.3 85.29-22.65 78.19-21.9 78.99-2.6 81.89-2.55 82.69-0.15 72.84-0.3 72.59-1.95 74.99-2.3 74.54-19.1 74.59-21.05 71.14-21.5 71.29-23.3 74.29-24.25 74.34-30.7 79.29-36.05 87.34-34.75 86.49-32 80.64-32.9ZM94.09-13.2L94.14-13.4 105.84-15.25 104.44-21.8 101.09-23.05 94.54-20.85 94.09-13.2ZM97.24-25.7L104.29-25.15 108.29-21.65 109.74-13.05 94.09-10.55 96.79-2.6 102.69-2.75 109.69-4.85 110.09-0.9 95.99 1.1 89.84-8 90.54-20.85 97.24-25.7ZM125.29-0.75L125.49 0.65 115.49 0.75 115.24-0.7 117.89-1.75 118.09-22.9 114.44-24.15 114.09-25.4 124.49-26 124.99-25 121.94-23.3 121.74-1.8 125.29-0.75ZM122.44-30.8L118.64-29.2 116.94-32.6 118.99-34.55 122.19-34.15 122.44-30.8ZM156.39-6.6L159.04-3.55 150.69 0.65 147.69-0.9 147.69-16.1 146.14-20.65 142.34-21.05 136.59-12.7 136.59-2.45 139.29-1.65 138.89 0.25 129.79-0.15 129.39-1.25 132.04-2.45 132.04-20.65 128.69-22.55 131.29-26 135.89-21.05 136.59-16.45 141.59-24.45 148.04-24.1 151.84-17.25 151.04-3.9 151.84-3.2 156.39-6.6ZM165.13-13.2L165.18-13.4 176.88-15.25 175.48-21.8 172.13-23.05 165.58-20.85 165.13-13.2ZM168.28-25.7L175.33-25.15 179.33-21.65 180.78-13.05 165.13-10.55 167.83-2.6 173.73-2.75 180.73-4.85 181.13-0.9 167.03 1.1 160.88-8 161.58-20.85 168.28-25.7ZM226.43-10.65L226.98-22.8 220.38-30.2 214.83-31.55 211.13-30.55 210.83-4.65 220.38-3.7 226.43-10.65ZM220.93-34.3L230.93-23.65 229.33-7.6 221.33 0.4 208.63-0.5 201.13-0.35 201.28-1.9 206.68-3.15 206.88-31.85 203.38-33.2 203.58-35 208.53-35.25 220.93-34.3ZM239.18-13.2L239.23-13.4 250.93-15.25 249.53-21.8 246.18-23.05 239.63-20.85 239.18-13.2ZM242.33-25.7L249.38-25.15 253.38-21.65 254.83-13.05 239.18-10.55 241.88-2.6 247.78-2.75 254.78-4.85 255.18-0.9 241.08 1.1 234.93-8 235.63-20.85 242.33-25.7ZM274.27-13.1L270.02-12.95 264.42-9.2 264.27-3.6 266.27-2.55Q267.27-2.6 268.12-2.65L268.12-2.65Q268.82-2.7 269.4-2.78 269.97-2.85 269.97-2.95L269.97-2.95Q269.97-2.95 270.17-3.25 270.37-3.55 270.7-4.03 271.02-4.5 271.42-5.08 271.82-5.65 272.27-6.25L272.27-6.25Q273.27-7.65 274.62-9.45L274.62-9.45 274.27-13.1ZM261.57-22.8L266.82-26.45 278.12-23.8 278.32-3.25 282.57-2.95 282.62-0.65 276.42-0.05 274.32-4.45 271.72-0.35 263.27 1.25 260.17-2.5 260.37-10.1 268.92-15.65 274.22-16.35 274.62-21.8 266.27-22.9 263.82-18.65 261.07-21.55 261.57-22.8ZM296.57-1.95L296.82-0.05 286.27-0.25 286.12-1.55 289.72-2.6 289.72-32.6 287.07-32.05 287.27-35.35 293.62-35.5 293.17-2.65 296.57-1.95ZM305.07-13.2L305.12-13.4 316.82-15.25 315.42-21.8 312.07-23.05 305.52-20.85 305.07-13.2ZM308.22-25.7L315.27-25.15 319.27-21.65 320.72-13.05 305.07-10.55 307.77-2.6 313.67-2.75 320.67-4.85 321.07-0.9 306.97 1.1 300.82-8 301.52-20.85 308.22-25.7ZM339.77-24.8L343.32-20.6 340.27-18 337.62-21.85 333.57-20.5 332.37-17.85 332.57-2.85 335.52-1.9 335.22-0.15 326.37-0.15 326.22-1.5 328.57-2.45 328.52-22.45 326.07-23.85 328.22-26.6 331.87-24.25 332.17-22.55 334.72-23.55 339.77-24.8Z" opacity="1" transform="matrix(1,0,0,1,0,0)" fill="#ba3b0a" class="undefined-text-1" data-fill-palette-color="secondary" id="text-1"></path></svg></g></svg></g></svg></g></svg></g><g></g></svg></g></svg></g><g mask="url(#8f4c87b7-b4b4-4761-8372-7c2b50d9d7e3)"><g transform="matrix(2.9365269461077843, 0, 0, 2.9365269461077843, 86.34816049541541, 1)"><svg xmlns="http://www.w3.org/2000/svg" xmlns:xlink="http://www.w3.org/1999/xlink" version="1.1" x="0" y="0" viewBox="13.799999237060547 6.809999942779541 75.8800048828125 83.5" enable-background="new 0 0 100 100" xml:space="preserve" height="83.5" width="75.8800048828125" class="icon-none" data-fill-palette-color="accent" id="none"><path d="M75.204 19.549c-0.132-0.084-0.263-0.17-0.396-0.246-0.734-0.481-1.508-0.906-2.291-1.283-2.161-1.057-4.481-1.773-6.896-2.169-10.869-1.802-23.803 2.831-33.832 12.859-10.83 10.83-15.321 24.982-12.349 36.246 0.661 2.51 1.698 4.887 3.113 7.038h0.009c0.349 0.548 0.736 1.085 1.142 1.604 0.019 0.018 0.028 0.028 0.047 0.047 0.028 0.037 0.056 0.075 0.084 0.104 0.425 0.414 1.029 0.585 1.604 0.435 0.076-0.021 0.15-0.038 0.226-0.058 4.416-1.142 12.548-4.009 19.123-10.585 4.076-4.065 4.784-8.151 5.604-12.915 0.973-5.576 1.981-11.33 8.388-17.746 6.584-6.575 12.312-9.236 15.963-10.311 0.632-0.18 1.093-0.717 1.188-1.359 0.01-0.085 0.019-0.169 0.019-0.245C75.96 20.398 75.687 19.87 75.204 19.549zM60.997 26.37c-1.482 1.189-3.019 2.557-4.595 4.132-4.878 4.877-6.991 9.623-8.151 13.906-0.538 2-0.868 3.905-1.179 5.67-0.783 4.509-1.349 7.773-4.66 11.085-5.604 5.604-12.5 8.273-16.708 9.462-0.245-0.358-0.48-0.717-0.698-1.085-1.038-1.717-1.792-3.595-2.283-5.595-2.52-10.085 1.698-23.094 11.444-32.85 8.99-8.99 20.792-13.33 30.528-11.924 1.133 0.15 2.228 0.396 3.293 0.716 0.755 0.217 1.48 0.481 2.198 0.783C67.554 21.832 64.431 23.615 60.997 26.37z" fill="#ba3b0a" data-fill-palette-color="accent"></path><path d="M55.38 6.81l-2.07 2.14C43 10.22 32.63 15.52 24.24 23.91c-2.84 2.84-5.3 5.89-7.36 9.06l-3.08 1.32c2.4-4.14 5.43-8.1 9.07-11.74C32.17 13.23 43.89 7.59 55.38 6.81z" fill="#ba3b0a" data-fill-palette-color="accent"></path><path d="M51.06 11.26l-2.45 2.53c-7.72 2.05-15.28 6.49-21.64 12.85-1.06 1.06-2.07 2.16-3.01 3.28l-3.73 1.6c1.59-2.16 3.39-4.25 5.37-6.24C33.01 17.87 42 12.97 51.06 11.26z" fill="#ba3b0a" data-fill-palette-color="accent"></path><path d="M89.68 59.09C87.05 65.61 82.93 71.9 77.45 77.38c-5.88 5.88-12.73 10.29-19.88 12.93l0.899-2.42c6.33-2.59 12.37-6.63 17.62-11.88 4.66-4.66 8.3-9.93 10.84-15.399L89.68 59.09z" fill="#ba3b0a" data-fill-palette-color="accent"></path><path d="M83.95 62.25c-2.34 4.39-5.431 8.6-9.23 12.4C70.11 79.25 64.88 82.89 59.4 85.38l0.97-2.6c4.63-2.351 9.04-5.55 12.99-9.5 2.87-2.88 5.33-5.99 7.34-9.24L83.95 62.25z" fill="#ba3b0a" data-fill-palette-color="accent"></path><path d="M83.733 32.511c-0.604-2.566-1.586-4.991-2.964-7.188-0.273-0.453-0.574-0.887-0.886-1.321-0.085-0.123-0.188-0.226-0.293-0.311-0.301-0.246-0.669-0.378-1.056-0.387-0.208 0-0.548 0.009-1 0.057-2.688 0.273-9.501 1.839-17.964 10.302-5.857 5.859-6.792 11.217-7.688 16.416-0.858 4.943-1.67 9.613-6.303 14.255-5.651 5.642-12.33 8.698-16.943 10.255-0.613 0.208-1.056 0.755-1.132 1.396-0.009 0.085-0.019 0.181-0.009 0.265 0.009 0.425 0.188 0.83 0.491 1.133 0.085 0.085 0.179 0.16 0.283 0.226 0.132 0.086 0.274 0.171 0.415 0.255 0.736 0.452 1.5 0.859 2.292 1.217 2.539 1.171 5.284 1.896 8.161 2.188C49.647 82.343 61.808 77.664 71.28 68.2 81.818 57.663 86.374 43.701 83.733 32.511zM68.893 65.824c-8.357 8.357-18.915 12.698-28.123 12.197-1.792-0.084-3.528-0.357-5.189-0.829-0.783-0.219-1.538-0.472-2.283-0.775 4.5-1.904 9.906-4.952 14.66-9.707 5.387-5.387 6.377-11.057 7.246-16.066 0.887-5.094 1.651-9.5 6.746-14.595 7.642-7.632 13.557-9.057 15.727-9.311 0.207 0.321 0.415 0.651 0.604 0.98 1.066 1.85 1.83 3.859 2.283 5.991C82.762 43.701 78.487 56.229 68.893 65.824z" fill="#ba3b0a" data-fill-palette-color="accent"></path></svg></g></g></svg></g><defs><mask id="8f4c87b7-b4b4-4761-8372-7c2b50d9d7e3"><rect width="640" height="400" fill="white"></rect><rect width="348.05760000000004" height="78.84072722449488" fill="black" x="145.97119999999998" y="160.57963638775254" id="transform-me" transform="matrix(1,0,0,1,-122.24000000000001,-76.4)"></rect></mask></defs></svg><rect width="395.52" height="247.2" fill="none" stroke="none" visibility="hidden"></rect></g></svg></g></svg>